<svg width="14" height="19" viewBox="0 0 14 19" fill="none" xmlns="http://www.w3.org/2000/svg">
<path d="M2.10868 4.15668C2.98058 3.39296 3.66117 3.12269 4.78559 2.97604C6.39425 2.76624 7.5457 3.05089 8.78262 4.15668C10.3499 5.55781 10.3737 7.27263 10.3961 9.44052C10.4164 11.404 10.0909 12.5939 9.16765 14.2985C8.79585 14.9851 8.55707 15.3624 8.04922 15.9437C6.67466 17.5172 3.46547 18.5179 3.46547 18.5179C2.66394 18.3965 2.07922 18.3429 1.5403 17.705C1.08061 17.1608 1.15934 16.6397 0.953578 15.9437C0.472793 14.3174 -0.142884 13.3764 0.0551634 11.6857C0.149429 10.8809 0.561414 10.5017 0.605213 9.69213C0.64569 8.94399 0.298094 8.54396 0.330188 7.79537C0.398671 6.19801 0.942985 5.17774 2.10868 4.15668Z" fill="#F0D0C0"/>
<path d="M3.97037 8.68573C3.97037 9.82218 3.09893 10.7341 2.03518 10.7341C0.971442 10.7341 0.1 9.82218 0.1 8.68573C0.1 7.54927 0.971442 6.63735 2.03518 6.63735C3.09893 6.63735 3.97037 7.54927 3.97037 8.68573Z" stroke="#403440" stroke-width="0.2"/>
<path d="M8.77408 9.34369C8.77408 10.4801 7.90264 11.3921 6.8389 11.3921C5.77515 11.3921 4.90371 10.4801 4.90371 9.34369C4.90371 8.20723 5.77515 7.29531 6.8389 7.29531C7.90264 7.29531 8.77408 8.20723 8.77408 9.34369Z" stroke="#403440" stroke-width="0.2"/>
<path d="M4.05176 8.97607C4.38179 8.89866 4.4918 8.78253 4.8585 9.15027" stroke="#403440" stroke-width="0.2"/>
<path d="M1.7239 3.84701C0.458802 5.2212 0.403809 6.80832 0.403809 6.80832C0.403809 6.80832 0.767575 6.16957 1.46723 5.35668C1.46723 5.35668 1.8318 4.79526 2.20063 4.36958C2.90301 3.55894 3.80485 3.20092 4.84087 3.30508C5.71506 3.39297 6.05134 3.29618 6.49099 4.09862C6.96061 4.95575 5.94092 5.76312 6.49099 6.63409C7.04107 7.50505 8.23282 7.42763 8.52618 9.28568C8.81954 11.1437 6.72938 10.9889 6.69268 11.6276C6.65598 12.2663 6.51621 12.4191 6.83938 12.5567C6.9267 12.5938 6.93507 12.5567 7.07774 12.5949C7.41474 12.6851 8.01384 12.9884 8.23282 14.0082C8.51184 15.3077 10.5191 14.9241 11.6431 14.318C12.9155 13.6319 12.2059 11.8954 13.1833 10.7954C13.4502 10.4949 12.9331 9.60168 13.1833 9.28568C14.2747 7.90735 13.4033 7.19537 12.8716 6.01478C12.1641 5.13942 11.5994 4.15036 10.8914 3.30508C10.3415 2.64847 10.9859 1.93658 10.1397 1.35029C9.68542 1.03557 9.01282 1.25853 8.36119 0.963199C7.82097 0.718369 7.52225 0.264711 7.09607 0.101915C6.17598 -0.249555 6.10552 0.449107 4.69419 0.101897C3.28285 -0.245313 1.94394 0.69219 1.94394 0.69219C1.94394 0.69219 1.21055 1.87283 1.1372 2.58896C1.06386 3.30508 1.7239 3.84701 1.7239 3.84701Z" fill="#674C52"/>
</svg>
