<svg width="701" height="898" viewBox="0 0 701 898" fill="none" xmlns="http://www.w3.org/2000/svg">
<path d="M107.84 201.394C152.433 164.392 187.242 151.297 244.75 144.192C327.025 134.027 385.916 147.818 449.178 201.394C529.335 269.279 530.551 352.362 531.699 457.397C532.738 552.529 516.088 610.177 468.87 692.77C449.854 726.032 437.642 744.311 411.668 772.478C341.366 848.713 177.233 897.197 177.233 897.197C136.239 891.314 106.333 888.722 78.7704 857.812C55.2598 831.446 59.2866 806.199 48.7627 772.478C24.1731 693.685 -7.31561 648.091 2.81348 566.175C7.63465 527.185 28.7056 508.811 30.9457 469.588C33.0158 433.34 15.2381 413.959 16.8796 377.689C20.3821 300.297 48.221 250.865 107.84 201.394Z" fill="#F0D0C0"/>
<circle cx="104.089" cy="420.825" r="102.589" stroke="#ADA6A6" stroke-width="3"/>
<circle cx="349.776" cy="452.708" r="102.589" stroke="#ADA6A6" stroke-width="3"/>
<path d="M207.241 434.891C224.121 431.14 229.747 425.514 248.502 443.331" stroke="#ADA6A6" stroke-width="3"/>
<path d="M88.145 186.389C23.442 252.968 20.6294 329.865 20.6294 329.865C20.6294 329.865 39.2342 298.917 75.018 259.532C75.018 259.532 93.664 232.331 112.527 211.707C148.45 172.431 194.575 155.085 247.562 160.132C292.272 164.39 309.471 159.701 331.957 198.579C355.976 240.107 303.824 279.225 331.957 321.423C360.091 363.621 421.043 359.87 436.046 449.893C451.05 539.916 344.149 532.414 342.272 563.36C340.396 594.305 333.247 601.709 349.776 608.373C354.241 610.174 354.67 608.373 361.966 610.224C379.202 614.594 409.843 629.29 421.043 678.702C435.313 741.662 537.972 723.074 595.463 693.708C660.535 660.469 624.247 576.335 674.232 523.037C687.883 508.482 661.435 465.204 674.232 449.893C730.052 383.113 685.486 348.617 658.292 291.417C622.107 249.006 593.224 201.086 557.015 160.132C528.889 128.319 561.847 93.8276 518.569 65.422C495.336 50.1735 460.936 60.976 427.608 46.6672C399.979 34.8051 384.701 12.8253 362.904 4.93778C315.846 -12.091 312.242 21.7593 240.06 4.93692C167.878 -11.8855 99.399 33.5368 99.399 33.5368C99.399 33.5368 61.89 90.7391 58.1387 125.435C54.3874 160.132 88.145 186.389 88.145 186.389Z" fill="#4F373C"/>
</svg>
