<svg width="597" height="372" viewBox="0 0 597 372" fill="none" xmlns="http://www.w3.org/2000/svg">
<path d="M265.958 356.88C265.287 319.632 264.28 282.551 262.938 245.638C261.931 208.39 261.428 171.142 261.428 133.893C261.428 131.209 261.428 126.511 261.428 119.799C261.428 112.752 261.428 105.369 261.428 97.6513C261.763 89.9332 261.931 82.7184 261.931 76.007C261.931 69.2955 261.931 64.5975 261.931 61.913C263.273 56.5438 265.287 52.3492 267.971 49.329C270.656 45.9733 274.851 44.2955 280.555 44.2955C286.26 44.2955 291.294 46.1411 295.656 49.8324C300.018 53.1881 303.542 57.215 306.227 61.913L378.71 201.846C379.046 202.517 380.22 204.531 382.234 207.887C384.247 211.242 385.757 213.591 386.764 214.934C387.099 215.269 387.603 215.605 388.274 215.94C388.945 216.276 389.281 216.611 389.281 216.947L391.294 212.417L434.079 61.913C437.099 57.215 439.281 52.0136 440.623 46.3089C442.301 40.2686 443.979 34.3961 445.657 28.6914C447.67 22.9867 450.019 17.6175 452.704 12.5839C455.724 7.55036 460.086 3.35572 465.791 0H469.818C478.878 0 485.59 2.68457 489.952 8.05372C494.314 13.0873 497.335 19.4632 499.012 27.1813C500.69 34.5639 501.361 42.4498 501.026 50.8391C501.026 58.8928 501.194 65.9398 501.529 71.9801C501.529 74.3291 501.697 78.8593 502.033 85.5708C502.704 92.2822 503.375 100.168 504.046 109.229C504.717 118.289 505.388 128.021 506.059 138.423C506.731 148.49 507.234 158.054 507.57 167.115C508.241 176.175 508.744 184.061 509.08 190.772C509.751 197.484 510.086 201.846 510.086 203.86V205.873C510.422 208.893 511.093 213.927 512.1 220.974C513.106 228.021 514.113 235.571 515.12 243.625C516.462 251.343 517.637 258.726 518.643 265.773C519.65 272.82 520.489 277.686 521.16 280.37C521.496 282.048 521.999 284.565 522.67 287.92C523.677 291.276 524.684 294.967 525.69 298.994C527.033 302.686 528.207 306.209 529.214 309.565C530.221 312.921 531.06 315.27 531.731 316.612C530.388 324.33 528.375 330.37 525.69 334.733C523.341 338.76 517.972 340.773 509.583 340.773C508.576 340.773 507.066 340.773 505.053 340.773C503.039 340.437 501.865 340.27 501.529 340.27C500.523 339.598 498.509 337.921 495.489 335.236C492.804 332.551 491.294 330.706 490.959 329.699L482.905 302.014L467.804 187.249V182.719C467.469 176.678 467.301 170.303 467.301 163.591C467.301 156.544 467.133 149.497 466.798 142.45C466.798 135.403 466.462 128.356 465.791 121.309C465.12 114.262 463.777 107.718 461.764 101.678L459.247 104.698L423.005 250.672C422.67 254.363 422.334 258.39 421.999 262.753C421.663 266.779 420.824 270.806 419.482 274.833C418.14 278.524 416.126 281.712 413.442 284.397C410.757 287.082 406.898 288.592 401.864 288.927C399.851 289.263 397.67 288.927 395.321 287.92C392.972 286.914 390.623 285.571 388.274 283.894C385.925 282.216 383.744 280.37 381.73 278.357C380.052 276.008 379.046 273.826 378.71 271.813L314.784 170.135L304.213 148.994V192.283C304.213 212.752 304.549 232.887 305.22 252.685C306.227 272.149 306.73 292.115 306.73 312.585C306.73 314.263 306.73 317.283 306.73 321.645C306.73 325.672 306.562 330.035 306.227 334.733C306.227 339.431 306.227 343.961 306.227 348.323C306.227 352.35 306.227 355.203 306.227 356.88C304.884 360.907 302.871 364.431 300.186 367.451C297.837 370.471 294.314 371.981 289.616 371.981C283.24 371.981 278.206 370.974 274.515 368.961C271.159 366.612 268.307 362.585 265.958 356.88Z" fill="white"/>
<path d="M100.044 317.922C98.9398 317.743 96.3338 317.507 92.2257 317.216C88.5456 316.617 84.2835 316.112 79.4394 315.702C74.5953 315.291 70.1192 314.94 66.0112 314.649C62.3311 314.05 59.939 313.661 58.8349 313.481L42.2743 310.785C37.8581 310.066 33.2879 309.134 28.5636 307.987C23.8993 306.472 19.6628 304.649 15.8543 302.518C12.4737 300.079 9.7649 296.994 7.72795 293.262C5.69099 289.531 5.15175 284.721 6.11022 278.833C6.94889 273.681 9.07989 269.872 12.5032 267.407C16.3545 264.634 20.2657 261.493 24.2367 257.984C25.5804 256.692 28.0538 254.261 31.6568 250.692C35.6279 247.183 39.6289 243.49 43.6599 239.613C48.0589 235.796 52.03 232.287 55.5731 229.086C59.5442 225.577 62.2315 222.993 63.6351 221.332C65.3382 217.832 67.6575 215.187 70.593 213.398C73.9564 211.302 76.6737 208.533 78.7448 205.092L151.533 123.444C154.281 120.491 156.536 117.081 158.299 113.212C160.49 109.036 162.621 105.227 164.692 101.787C167.131 98.406 169.818 95.8213 172.754 94.0326C175.749 91.8758 179.823 91.2168 184.975 92.0555C193.071 93.3734 199.032 97.3658 202.858 104.033C207.052 110.76 208.918 117.863 208.456 125.343C208.704 126.139 208.31 127.397 207.275 129.118C206.667 130.53 205.935 131.544 205.079 132.16L117.733 230.138C115.234 233.887 111.785 237.67 107.386 241.487C103.047 244.936 98.678 248.569 94.279 252.386C89.9399 255.835 85.9388 259.528 82.2759 263.465C78.9809 267.462 77.004 271.484 76.345 275.533C100.266 279.426 123.515 283.966 146.092 289.153C168.729 293.971 191.799 299.615 215.3 306.085C216.045 308.472 217.401 310.582 219.37 312.413C221.766 313.937 223.949 315.614 225.917 317.446C227.946 318.909 229.546 320.681 230.718 322.76C232.259 324.9 232.73 327.81 232.131 331.49C229.735 346.211 220.992 352.343 205.904 349.887C200.751 349.048 196.669 347.439 193.656 345.06C191.012 342.741 187.541 340.854 183.245 339.399C169.74 334.178 156.085 329.878 142.28 326.497C128.475 323.117 114.396 320.259 100.044 317.922Z" fill="white"/>
<path d="M555.222 333.167C555.222 328.469 556.9 324.106 560.255 320.079C563.947 316.052 568.141 314.039 572.839 314.039C578.544 314.039 583.074 315.549 586.43 318.569C590.121 321.589 593.645 324.945 597 328.636V330.147C597 335.851 594.987 341.053 590.96 345.751C587.269 350.113 582.235 352.294 575.859 352.294C571.497 352.294 566.967 350.281 562.269 346.254C557.571 342.227 555.222 337.865 555.222 333.167Z" fill="white"/>
</svg>
