<svg width="409" height="637" viewBox="0 0 409 637" fill="none" xmlns="http://www.w3.org/2000/svg">
<g filter="url(#filter0_dd)">
<rect x="6.05371" y="6.8623" width="396.713" height="625.742" rx="18" fill="white"/>
</g>
<rect x="30.5928" y="258.386" width="159.503" height="212.671" rx="8" fill="#E4E4E4"/>
<rect x="212.59" y="362.677" width="159.503" height="108.38" rx="8" fill="#F47094"/>
<path d="M170.074 87.86C170.074 87.11 169.809 86.5319 169.277 86.1256C168.754 85.7194 167.805 85.3092 166.43 84.8951C165.055 84.4811 163.961 84.0201 163.148 83.5123C161.594 82.5358 160.816 81.2623 160.816 79.692C160.816 78.317 161.375 77.1842 162.492 76.2936C163.617 75.403 165.074 74.9576 166.863 74.9576C168.051 74.9576 169.109 75.1764 170.039 75.6139C170.969 76.0514 171.699 76.6764 172.23 77.4889C172.762 78.2936 173.027 79.1881 173.027 80.1725H170.074C170.074 79.2819 169.793 78.5865 169.23 78.0865C168.676 77.5787 167.879 77.3248 166.84 77.3248C165.871 77.3248 165.117 77.5319 164.578 77.9459C164.047 78.36 163.781 78.9381 163.781 79.6803C163.781 80.3053 164.07 80.8287 164.648 81.2506C165.227 81.6647 166.18 82.0709 167.508 82.4694C168.836 82.86 169.902 83.3092 170.707 83.817C171.512 84.317 172.102 84.8951 172.477 85.5514C172.852 86.1998 173.039 86.9615 173.039 87.8365C173.039 89.2584 172.492 90.3912 171.398 91.235C170.312 92.0709 168.836 92.4889 166.969 92.4889C165.734 92.4889 164.598 92.2623 163.559 91.8092C162.527 91.3483 161.723 90.7155 161.145 89.9108C160.574 89.1061 160.289 88.1686 160.289 87.0983H163.254C163.254 88.067 163.574 88.817 164.215 89.3483C164.855 89.8795 165.773 90.1451 166.969 90.1451C168 90.1451 168.773 89.9381 169.289 89.524C169.812 89.1022 170.074 88.5475 170.074 87.86ZM180.949 92.4889C179.145 92.4889 177.68 91.9225 176.555 90.7897C175.438 89.649 174.879 88.1334 174.879 86.2428V85.8912C174.879 84.6256 175.121 83.4967 175.605 82.5045C176.098 81.5045 176.785 80.7272 177.668 80.1725C178.551 79.6178 179.535 79.3405 180.621 79.3405C182.348 79.3405 183.68 79.8912 184.617 80.9928C185.562 82.0944 186.035 83.653 186.035 85.6686V86.817H177.75C177.836 87.8639 178.184 88.692 178.793 89.3014C179.41 89.9108 180.184 90.2155 181.113 90.2155C182.418 90.2155 183.48 89.6881 184.301 88.6334L185.836 90.0983C185.328 90.8561 184.648 91.4459 183.797 91.8678C182.953 92.2819 182.004 92.4889 180.949 92.4889ZM180.609 81.6256C179.828 81.6256 179.195 81.899 178.711 82.4459C178.234 82.9928 177.93 83.7545 177.797 84.7311H183.223V84.5201C183.16 83.567 182.906 82.8483 182.461 82.3639C182.016 81.8717 181.398 81.6256 180.609 81.6256ZM195.938 91.0123C195.102 91.9967 193.914 92.4889 192.375 92.4889C191 92.4889 189.957 92.0865 189.246 91.2819C188.543 90.4772 188.191 89.3131 188.191 87.7897V79.5748H191.039V87.7545C191.039 89.3639 191.707 90.1686 193.043 90.1686C194.426 90.1686 195.359 89.6725 195.844 88.6803V79.5748H198.691V92.2545H196.008L195.938 91.0123ZM214.676 88.8092C214.676 88.3014 214.465 87.9147 214.043 87.649C213.629 87.3834 212.938 87.149 211.969 86.9459C211 86.7428 210.191 86.485 209.543 86.1725C208.121 85.485 207.41 84.4889 207.41 83.1842C207.41 82.0905 207.871 81.1764 208.793 80.442C209.715 79.7076 210.887 79.3405 212.309 79.3405C213.824 79.3405 215.047 79.7155 215.977 80.4655C216.914 81.2155 217.383 82.1881 217.383 83.3834H214.535C214.535 82.8365 214.332 82.3834 213.926 82.024C213.52 81.6569 212.98 81.4733 212.309 81.4733C211.684 81.4733 211.172 81.6178 210.773 81.9069C210.383 82.1959 210.188 82.5826 210.188 83.067C210.188 83.5045 210.371 83.8444 210.738 84.0865C211.105 84.3287 211.848 84.5748 212.965 84.8248C214.082 85.067 214.957 85.36 215.59 85.7037C216.23 86.0397 216.703 86.4459 217.008 86.9225C217.32 87.399 217.477 87.9772 217.477 88.6569C217.477 89.7975 217.004 90.7233 216.059 91.4342C215.113 92.1373 213.875 92.4889 212.344 92.4889C211.305 92.4889 210.379 92.3014 209.566 91.9264C208.754 91.5514 208.121 91.0358 207.668 90.3795C207.215 89.7233 206.988 89.0162 206.988 88.2584H209.754C209.793 88.9303 210.047 89.4498 210.516 89.817C210.984 90.1764 211.605 90.3561 212.379 90.3561C213.129 90.3561 213.699 90.2155 214.09 89.9342C214.48 89.6451 214.676 89.2701 214.676 88.8092ZM222.996 92.2545H220.148V79.5748H222.996V92.2545ZM219.973 76.2819C219.973 75.8444 220.109 75.4811 220.383 75.192C220.664 74.903 221.062 74.7584 221.578 74.7584C222.094 74.7584 222.492 74.903 222.773 75.192C223.055 75.4811 223.195 75.8444 223.195 76.2819C223.195 76.7115 223.055 77.0709 222.773 77.36C222.492 77.6412 222.094 77.7819 221.578 77.7819C221.062 77.7819 220.664 77.6412 220.383 77.36C220.109 77.0709 219.973 76.7115 219.973 76.2819ZM229.676 76.4928V79.5748H231.914V81.6842H229.676V88.7623C229.676 89.2467 229.77 89.5983 229.957 89.817C230.152 90.028 230.496 90.1334 230.988 90.1334C231.316 90.1334 231.648 90.0944 231.984 90.0162V92.2194C231.336 92.399 230.711 92.4889 230.109 92.4889C227.922 92.4889 226.828 91.2819 226.828 88.8678V81.6842H224.742V79.5748H226.828V76.4928H229.676ZM239.684 92.4889C237.879 92.4889 236.414 91.9225 235.289 90.7897C234.172 89.649 233.613 88.1334 233.613 86.2428V85.8912C233.613 84.6256 233.855 83.4967 234.34 82.5045C234.832 81.5045 235.52 80.7272 236.402 80.1725C237.285 79.6178 238.27 79.3405 239.355 79.3405C241.082 79.3405 242.414 79.8912 243.352 80.9928C244.297 82.0944 244.77 83.653 244.77 85.6686V86.817H236.484C236.57 87.8639 236.918 88.692 237.527 89.3014C238.145 89.9108 238.918 90.2155 239.848 90.2155C241.152 90.2155 242.215 89.6881 243.035 88.6334L244.57 90.0983C244.062 90.8561 243.383 91.4459 242.531 91.8678C241.688 92.2819 240.738 92.4889 239.684 92.4889ZM239.344 81.6256C238.562 81.6256 237.93 81.899 237.445 82.4459C236.969 82.9928 236.664 83.7545 236.531 84.7311H241.957V84.5201C241.895 83.567 241.641 82.8483 241.195 82.3639C240.75 81.8717 240.133 81.6256 239.344 81.6256Z" fill="#3E4751"/>
<line x1="114.435" y1="153.096" x2="292.342" y2="153.096" stroke="#B8B8B8" stroke-width="2"/>
<line x1="114.434" y1="165.365" x2="292.341" y2="165.365" stroke="#B8B8B8" stroke-width="2"/>
<line x1="114.434" y1="177.635" x2="292.341" y2="177.635" stroke="#B8B8B8" stroke-width="2"/>
<line x1="114.434" y1="202.174" x2="292.341" y2="202.174" stroke="#B8B8B8" stroke-width="2"/>
<line x1="114.434" y1="189.904" x2="292.341" y2="189.904" stroke="#B8B8B8" stroke-width="2"/>
<line x1="224.859" y1="269.656" x2="359.823" y2="269.656" stroke="#C4C4C4" stroke-width="2"/>
<line x1="224.859" y1="281.925" x2="359.823" y2="281.925" stroke="#C4C4C4" stroke-width="2"/>
<line x1="224.859" y1="294.195" x2="359.823" y2="294.195" stroke="#C4C4C4" stroke-width="2"/>
<line x1="224.859" y1="318.734" x2="359.823" y2="318.734" stroke="#C4C4C4" stroke-width="2"/>
<line x1="224.859" y1="306.464" x2="359.823" y2="306.464" stroke="#C4C4C4" stroke-width="2"/>
<defs>
<filter id="filter0_dd" x="0.0537109" y="0.862305" width="408.713" height="635.742" filterUnits="userSpaceOnUse" color-interpolation-filters="sRGB">
<feFlood flood-opacity="0" result="BackgroundImageFix"/>
<feColorMatrix in="SourceAlpha" type="matrix" values="0 0 0 0 0 0 0 0 0 0 0 0 0 0 0 0 0 0 127 0"/>
<feOffset dx="-2" dy="-2"/>
<feGaussianBlur stdDeviation="2"/>
<feColorMatrix type="matrix" values="0 0 0 0 0.243137 0 0 0 0 0.278431 0 0 0 0 0.317647 0 0 0 0.4 0"/>
<feBlend mode="darken" in2="BackgroundImageFix" result="effect1_dropShadow"/>
<feColorMatrix in="SourceAlpha" type="matrix" values="0 0 0 0 0 0 0 0 0 0 0 0 0 0 0 0 0 0 127 0"/>
<feOffset dx="2"/>
<feGaussianBlur stdDeviation="2"/>
<feColorMatrix type="matrix" values="0 0 0 0 0.243137 0 0 0 0 0.278431 0 0 0 0 0.317647 0 0 0 0.4 0"/>
<feBlend mode="darken" in2="effect1_dropShadow" result="effect2_dropShadow"/>
<feBlend mode="normal" in="SourceGraphic" in2="effect2_dropShadow" result="shape"/>
</filter>
</defs>
</svg>
